<?xml version="1.0" encoding="utf-8"?>
<!-- Generator: Adobe Illustrator 24.0.0, SVG Export Plug-In . SVG Version: 6.00 Build 0)  -->
<svg version="1.1" id="Layer_1" xmlns="http://www.w3.org/2000/svg" xmlns:xlink="http://www.w3.org/1999/xlink" x="0px" y="0px"
	 viewBox="0 0 512 512" style="enable-background:new 0 0 512 512;" xml:space="preserve">
<style type="text/css">
	.st0{fill:#FFFFFF;}
	.st1{fill:#061922;}
	.st2{fill:#EC174C;}
	.st3{fill:#006BB5;}
</style>
<g id="mdx">
</g>
<g id="XMLID_1_">
	<path id="XMLID_16_" class="st0" d="M64,256c0-106,86-192,192-192c106,0,192,86,192,192c0,106-86,192-192,192
		C150,448,64,362,64,256"/>
	<path id="XMLID_9_" class="st1" d="M256,64C150.1,64,64,150.1,64,256c0,105.9,86.1,192,192,192c105.9,0,192-86.1,192-192
		C448,150.1,361.9,64,256,64 M394.8,149.3c22,28.5,34.4,62.4,36.1,98.3h-72.3C360.3,211.8,372.8,177.9,394.8,149.3 M117.2,149.3
		c22,28.5,34.5,62.5,36.2,98.3H81.1C82.8,211.7,95.2,177.8,117.2,149.3 M117.2,362.7c-22-28.5-34.4-62.4-36.1-98.3h72.3
		C151.7,300.2,139.2,334.1,117.2,362.7 M264.4,430.9v-50.2h-16.8v50.2c-45.6-2.2-87.8-21.7-119.2-55.1c25.7-32,40.1-70.5,41.9-111.4
		v-16.8c-1.8-40.9-16.2-79.4-41.9-111.4c31.4-33.4,73.7-53,119.2-55.1v49.7h16.8V81.1c45.6,2.2,87.8,21.7,119.2,55.1
		c-25.6,32-40.1,70.5-41.9,111.4v16.8c1.8,40.9,16.2,79.4,41.9,111.4C352.3,409.2,310,428.8,264.4,430.9 M394.8,362.7
		c-22-28.5-34.5-62.5-36.2-98.3h72.3C429.2,300.3,416.7,334.2,394.8,362.7"/>
	<polygon id="XMLID_8_" class="st2" points="213.2,175.6 213.2,335.8 298.8,335.8 298.8,313.7 236.1,313.7 236.1,175.6 	"/>
	<path id="XMLID_7_" class="st3" d="M327.9,229.2v-66c0-9.9-4-13.9-13.7-13.9H197.7c-9.6,0-13.6,4-13.6,13.9v185.5
		c0,9.9,3.9,13.9,13.6,13.9h116.5c9.8,0,13.7-4,13.7-13.9v-66.1h-23.1v59.7H207V169.6h97.8v59.7H327.9z"/>
	<path id="XMLID_4_" class="st2" d="M298.8,307.5l0-132h-55.6l-0.5,132h22.3l0.4-41.1h11.3l-0.2,41.1H298.8z M276.5,244.5h-11.2
		v-46.9h11.2V244.5z"/>
</g>
</svg>
